# xmcd CD database file
#
# Track frame offsets:
#	150
#	17140
#	32595
#	49340
#	64450
#	82602
#	95460
#	126155
#	144692
#	162322
#	181252
#	198377
#	209745
#	220750
#
# Disc length: 3132 seconds
#
# Revision: 0
# Processed by: cddbd v1.5.2PL0 Copyright (c) Steve Scherf et al.
# Submitted via: CDex 1.51
#
DISCID=cb0c3a0e
DTITLE=S. Vaughan - H. Humes - A. Lincoln - E. Fitzgerald - B. Holliday - The Ladies sing JAZZ
DYEAR=1996
DGENRE=Jazz
TTITLE0=Poor Butterfly - S. Vaughan
TTITLE1=Out of the World - S. V.
TTITLE2=I' ll Be Seeing you - S.V.
TTITLE3=Nobody Knows You - H.H.
TTITLE4=It's th Talk of the Town - H.H.
TTITLE5=Dirty Mistreater Blues - H.H.
TTITLE6=Left Alone - A.L.
TTITLE7=When Malindy sigms - A.L.
TTITLE8=Do nothing till you Hear from Me. - E.F.
TTITLE9=April In paris - E.F.
TTITLE10=I Can't Give You Anything But Love - E.F.
TTITLE11=God Bless The Child - B.H. 
TTITLE12=I Love You Porgy - B.H.
TTITLE13=Fine And Mellow - B.H.
EXTD=YEAR: 1996
EXTT0=
EXTT1=
EXTT2=
EXTT3=
EXTT4=
EXTT5=
EXTT6=
EXTT7=
EXTT8=
EXTT9=
EXTT10=
EXTT11=
EXTT12=
EXTT13=
PLAYORDER=
